# xmcd
#
# Track frame offsets:
# 150
# 14231
# 26148
# 37052
# 53199
# 66265
# 83700
# 98320
# 110010
# 120618
# 144668
# 166863
# 181349
#
# Disc length: 2580 seconds
#
#
# Revision: 0
# Processed by: cddbd v1.4PL0 Copyright (c) Steve Scherf et al.
# Submitted via: FreeRIP 2.30 
#
DISCID=b10a120d
DTITLE=Richard Buckner - Richard Buckner
DYEAR=2003
DGENRE=Country
TTITLE0=On Traveling
TTITLE1=Boys, The Night Will Bury You
TTITLE2=Ed's Song
TTITLE3=A Goodbye Rye
TTITLE4=Home
TTITLE5=Song Of 27
TTITLE6=Roll
TTITLE7=Pull
TTITLE8=Figure
TTITLE9=Jewelbomb
TTITLE10=Lil Wallet Picture
TTITLE11=Loaded At The Wrong Door (Acoustic)
TTITLE12=Born Into Giving It Up (Acoustic)
EXTD=
EXTT0=
EXTT1=
EXTT2=
EXTT3=
EXTT4=
EXTT5=
EXTT6=
EXTT7=
EXTT8=
EXTT9=
EXTT10=
EXTT11=
EXTT12=
PLAYORDER=
